<svg preserveAspectRatio="none" width="100%" height="100%" overflow="visible" style="display: block;" viewBox="0 0 22 21" fill="none" xmlns="http://www.w3.org/2000/svg">
<g id="Icon">
<path d="M1.00001 7.37723C1.00001 7.02691 1.00001 6.85175 1.01463 6.70422C1.15562 5.28128 2.28128 4.15561 3.70422 4.01462C3.85176 4.00001 4.03637 4.00001 4.4056 4.00001C4.54787 4.00001 4.619 4.00001 4.6794 3.99635C5.45062 3.94964 6.12597 3.46288 6.41416 2.74601C6.43673 2.68987 6.45782 2.62658 6.50001 2.50001C6.5422 2.37344 6.5633 2.31015 6.58587 2.25401C6.87406 1.53713 7.5494 1.05037 8.32063 1.00367C8.38102 1.00001 8.44773 1.00001 8.58115 1.00001H13.4189C13.5523 1.00001 13.619 1.00001 13.6794 1.00367C14.4506 1.05037 15.126 1.53713 15.4142 2.25401C15.4367 2.31015 15.4578 2.37344 15.5 2.50001C15.5422 2.62658 15.5633 2.68987 15.5859 2.74601C15.8741 3.46288 16.5494 3.94964 17.3206 3.99635C17.381 4.00001 17.4522 4.00001 17.5944 4.00001C17.9637 4.00001 18.1483 4.00001 18.2958 4.01462C19.7187 4.15561 20.8444 5.28128 20.9854 6.70422C21 6.85175 21 7.02691 21 7.37723V15.2C21 16.8802 21 17.7202 20.673 18.362C20.3854 18.9265 19.9265 19.3854 19.362 19.673C18.7202 20 17.8802 20 16.2 20H5.80001C4.11986 20 3.27978 20 2.63804 19.673C2.07356 19.3854 1.61461 18.9265 1.32699 18.362C1.00001 17.7202 1.00001 16.8802 1.00001 15.2V7.37723Z" stroke="var(--stroke-0, #171717)" stroke-width="2" stroke-linecap="round" stroke-linejoin="round"/>
<path d="M11 15.5C13.2092 15.5 15 13.7091 15 11.5C15 9.29087 13.2092 7.50001 11 7.50001C8.79087 7.50001 7.00001 9.29087 7.00001 11.5C7.00001 13.7091 8.79087 15.5 11 15.5Z" stroke="var(--stroke-0, #171717)" stroke-width="2" stroke-linecap="round" stroke-linejoin="round"/>
</g>
</svg>
