<svg preserveAspectRatio="none" width="100%" height="100%" overflow="visible" style="display: block;" viewBox="0 0 22.0004 21.882" fill="none" xmlns="http://www.w3.org/2000/svg">
<path id="Icon" d="M1.00022 10.941L10.6424 15.7621C10.7736 15.8277 10.8392 15.8605 10.908 15.8734C10.969 15.8848 11.0315 15.8848 11.0924 15.8734C11.1612 15.8605 11.2268 15.8277 11.358 15.7621L21.0002 10.941M1.00022 15.941L10.6424 20.7621C10.7736 20.8277 10.8392 20.8605 10.908 20.8734C10.969 20.8848 11.0315 20.8848 11.0924 20.8734C11.1612 20.8605 11.2268 20.8277 11.358 20.7621L21.0002 15.941M1.00022 5.94098L10.6424 1.11987C10.7736 1.05428 10.8392 1.02148 10.908 1.00857C10.969 0.997142 11.0315 0.997142 11.0924 1.00857C11.1612 1.02148 11.2268 1.05428 11.358 1.11987L21.0002 5.94098L11.358 10.7621C11.2268 10.8277 11.1612 10.8605 11.0924 10.8734C11.0315 10.8848 10.969 10.8848 10.908 10.8734C10.8392 10.8605 10.7736 10.8277 10.6424 10.7621L1.00022 5.94098Z" stroke="var(--stroke-0, black)" stroke-width="2" stroke-linecap="round" stroke-linejoin="round"/>
</svg>
