<svg preserveAspectRatio="none" width="100%" height="100%" overflow="visible" style="display: block;" viewBox="0 0 32.9992 18.0467" fill="none" xmlns="http://www.w3.org/2000/svg">
<g id="Group">
<path id="Vector" d="M5.17922 7.0487C4.17751 6.76519 2.57569 6.38807 0.822468 6.85561C0.496799 6.94241 0.275607 7.08609 0.120592 7.35873C0.0433105 7.49494 -0.0278517 7.64225 0.0109022 7.7925C0.0444436 7.9201 0.226882 7.96497 0.373285 7.98831C0.51425 8.01052 0.833573 8.02729 0.919693 7.92463C0.964566 7.87092 0.965699 7.71998 0.731816 7.6708C0.645469 7.65267 0.410453 7.64451 0.392549 7.60485C0.392549 7.60485 0.400708 7.57743 0.529661 7.53754C0.586545 7.51987 1.00445 7.34785 2.14622 7.3848C3.50397 7.42853 4.68993 7.7465 5.9441 8.24033C7.17131 8.7235 8.55036 9.59739 9.35921 10.6379C9.66516 11.0315 10.045 11.6783 10.0951 12.2229C10.2163 13.5455 8.92453 14.6617 6.30173 14.5722C5.85345 14.5568 5.30863 14.4505 5.30863 14.4505L5.25424 11.897C5.25424 11.897 6.36405 11.8886 7.59103 12.2925C7.69551 12.3269 7.80044 12.3952 7.80996 12.4965C7.81676 12.5744 7.75534 12.6413 7.68622 12.7016C7.55908 12.8126 7.38412 12.8609 7.34559 12.908C7.31771 12.942 7.31749 12.9939 7.35375 13.0225C7.44599 13.0939 7.67239 13.1424 7.82514 13.129C8.13449 13.1016 8.34027 12.9228 8.49574 12.6884C8.66141 12.4387 8.75569 11.8036 7.87432 11.3987C6.73505 10.8749 5.24608 10.9735 5.24608 10.9735C5.24608 10.9735 5.23837 10.6272 5.22296 10.3967C5.19735 10.0187 5.09265 9.27558 4.74817 9.06141C4.68517 9.02266 4.60789 9.01812 4.56437 9.07682C4.49752 9.16408 4.43179 9.49654 4.41729 9.58289C4.28766 10.3559 4.29446 11.0492 4.28766 11.0589C4.2838 11.0635 4.27973 11.0673 4.27429 11.0714C4.26069 11.08 3.43734 11.1784 2.64254 11.5226C2.32526 11.66 1.87154 11.9079 1.73398 12.227C1.55653 12.6388 1.8686 13.0896 2.39551 13.5886C2.84175 14.0113 3.49966 14.4561 3.98714 14.6864C4.11134 14.7451 4.25729 14.8174 4.25729 14.8174C4.25729 14.8174 4.28879 15.1125 4.31417 15.2829C4.40573 15.8973 4.87418 15.8078 5.00336 15.7815C5.21322 15.7386 5.25356 15.599 5.28257 15.4372C5.29843 15.3488 5.29186 15.221 5.29186 15.221C5.29186 15.221 5.60914 15.2942 5.82218 15.333C6.44179 15.4474 7.11488 15.4671 7.69823 15.3876C10.0314 15.0687 10.6193 13.9696 10.8051 13.6761C11.1281 13.1657 11.8132 11.7438 9.74947 9.6332C9.27807 9.15093 7.91534 7.82287 5.17877 7.04847L5.17922 7.0487ZM2.09817 12.8011C2.01341 12.7136 1.94814 12.6188 1.96809 12.5044C1.98713 12.394 2.20333 12.2966 2.31257 12.2644C3.36504 11.9541 4.25706 11.9383 4.25706 11.9383C4.25706 11.9383 4.24868 12.3158 4.24686 12.6977C4.24346 13.4211 4.2625 14.1554 4.2625 14.1554C4.2625 14.1554 3.07541 13.8096 2.09817 12.8008V12.8011Z" fill="var(--fill-0, #050B5D)"/>
<path id="Vector_2" d="M12.7895 10.1442C13.2829 9.95083 13.6638 9.67344 14.0496 9.27865C14.2748 9.04952 14.4725 8.67263 14.3999 8.32929C14.3637 8.15864 14.2857 8.04101 14.1432 7.91818C14.0722 7.85722 13.9097 7.7711 13.7776 7.74481C13.7393 7.7371 13.6985 7.73416 13.682 7.7235C13.6632 7.71149 13.6482 7.68679 13.6298 7.6639C13.5435 7.55421 13.3719 7.44928 13.2486 7.4069C12.8702 7.27591 12.3652 7.37472 12.0205 7.51999C11.6561 7.67433 11.32 7.9005 11.0646 8.17427C10.3945 8.89269 10.6889 9.46176 10.7485 9.56783C10.7992 9.65757 10.8933 9.75434 10.9139 9.84817C10.9264 9.90392 10.9153 9.9769 10.9175 10.0428C10.9223 10.194 10.988 10.3499 11.1015 10.4503C11.1829 10.5219 11.2998 10.5432 11.4175 10.3649C11.4569 10.3051 11.5226 10.1834 11.5226 10.1834C11.5226 10.1834 11.6593 10.2625 11.9895 10.2856C12.2356 10.3028 12.5728 10.2287 12.7895 10.1442ZM11.2085 9.27593C11.2085 9.27593 11.1856 9.22811 11.1709 9.19207C11.0694 8.93961 11.2935 8.65496 11.4982 8.48045C11.8966 8.14096 12.2356 8.14912 12.2356 8.14912C12.2356 8.14912 12.1545 8.21416 12.0872 8.27308C11.5056 8.78187 11.2085 9.27593 11.2085 9.27593ZM12.0806 9.26664C12.3242 8.95252 12.7752 8.56272 13.0898 8.37507C13.3361 8.22798 13.5489 8.18764 13.7078 8.25745C13.8021 8.29892 13.8776 8.38436 13.8905 8.49881C13.9326 8.85303 13.5238 9.14901 13.2505 9.30856C12.6293 9.67094 11.8945 9.5889 11.8757 9.55604C11.873 9.54743 12.0244 9.34074 12.0808 9.26664H12.0806Z" fill="var(--fill-0, #050B5D)"/>
<path id="Vector_3" d="M26.8698 11.1923C26.0791 10.6436 24.8034 12.3834 24.2423 13.2462C24.1586 12.807 24.4557 12.2497 24.4557 12.2497C24.4557 12.2497 24.9321 11.4248 24.9997 11.2573C25.0647 11.0887 25.1025 10.7422 25.0207 10.7077C24.9464 10.6735 24.8181 10.7845 24.8181 10.7845C23.7482 11.7448 23.5986 12.8102 23.5986 12.8102C23.4975 13.3838 23.6156 13.7867 23.7892 14.0687C23.1945 15.3358 22.9035 16.441 22.9811 17.0944C23.0531 17.5919 23.4096 17.9515 23.6258 18.0275C23.8443 18.1186 23.883 17.8559 23.883 17.8559C24.06 16.5043 24.3692 15.6007 24.7374 14.7075C25.8527 14.9639 26.6919 13.8781 26.989 13.3593C27.1638 13.0479 27.2578 12.632 27.2578 12.2409C27.2578 11.7953 27.1352 11.3819 26.8698 11.192V11.1923ZM26.143 13.3468C26.015 13.4683 25.5912 13.7067 25.1517 13.7561C25.5705 12.9443 26.0907 12.3469 26.3789 12.0283C26.7143 11.6505 26.7583 11.9936 26.7583 11.9936C26.8365 12.6604 26.3513 13.1621 26.1428 13.3471L26.143 13.3468Z" fill="var(--fill-0, #050B5D)"/>
<path id="Vector_4" d="M23.2068 13.9897C23.26 13.7867 23.0753 13.5641 22.9083 13.5226C22.7524 13.4905 21.5555 13.7148 21.4125 13.7534C21.2586 13.7946 21.3273 13.65 21.3273 13.65L21.5122 13.0243C21.5122 13.0243 22.6545 12.9803 22.8208 12.9524C22.9745 12.9248 22.9837 12.8162 22.9837 12.8162C22.9837 12.8162 23.0035 12.6372 22.9978 12.4699C22.981 12.2909 22.8378 12.3075 22.8378 12.3075C22.3961 12.2612 21.7889 12.3133 21.7889 12.3133L21.9422 11.8331C21.9422 11.8331 23.1571 11.774 23.6192 11.6674C23.8565 11.6115 23.7169 11.3785 23.7169 11.3785C23.4289 10.8024 23.0968 10.8348 23.0968 10.8348C22.1411 10.8028 20.7523 11.0562 20.601 11.1312C20.4593 11.1956 20.4747 11.3023 20.6594 11.5351C20.8577 11.7803 21.1913 11.7574 21.1913 11.7574L20.8985 12.3632C20.6594 12.38 20.5774 12.4545 20.5774 12.4545C20.4396 12.6016 20.6297 13.0363 20.6297 13.0363C20.6297 13.0363 20.2148 13.9671 20.5157 14.4586C20.8389 14.9747 21.2212 14.95 21.2212 14.95C21.9487 15.003 23.1433 14.2413 23.207 13.9897H23.2068Z" fill="var(--fill-0, #050B5D)"/>
<path id="Vector_5" d="M19.0293 10.2939C19.0293 10.2939 18.86 10.2148 18.8172 10.3836C18.7741 10.5507 18.838 10.7288 18.838 10.7288C19.2593 12.1582 19.355 13.0026 19.355 13.0026C19.355 13.0026 19.3745 13.251 19.3262 13.2648C19.2924 13.2904 19.2548 13.2551 19.2548 13.2551C19.2065 13.2569 18.7447 12.482 18.7447 12.482L18.6549 12.3302C18.1466 11.51 17.8386 11.2306 17.8386 11.2306C17.7665 11.163 17.5816 10.9774 17.3511 11.2333C17.1204 11.4907 16.94 12.3177 16.8673 13.0951C16.8054 13.8708 16.8525 14.3123 16.9656 14.4986C17.0903 14.6871 17.3305 14.7515 17.5286 14.5899C17.738 14.429 17.6985 13.4055 17.7316 12.8809C17.7634 12.3537 17.8153 12.448 17.8153 12.448C17.8615 12.4356 18.1013 12.9178 18.1013 12.9178C18.1013 12.9178 18.7331 14.2114 19.1299 14.4029C19.532 14.594 19.8554 14.2865 19.9778 13.9984C20.1022 13.7083 20.3136 12.7488 19.9988 11.6854C19.682 10.6223 19.0291 10.2939 19.0291 10.2939H19.0293Z" fill="var(--fill-0, #050B5D)"/>
<path id="Vector_6" d="M12.464 13.0312C12.4477 12.6774 12.4056 11.7741 12.3067 11.3659C12.2639 11.1903 12.193 11.0301 12.0201 10.9641C12.0001 10.9566 11.977 10.9498 11.962 10.9473C11.8539 10.9263 11.7918 11.0754 11.7626 11.1495C11.6772 11.3689 11.6155 11.8928 11.5987 12.0562C11.548 12.5512 11.5067 13.7242 11.5926 14.3219C11.6287 14.5723 11.7112 14.735 11.9643 14.7874C12.067 14.8087 12.2539 14.8046 12.3362 14.752C12.408 14.7074 12.4581 14.6203 12.4749 14.5456C12.5214 14.3373 12.5032 14.042 12.4939 13.8199C12.4828 13.5577 12.4763 13.2964 12.4642 13.0312H12.464Z" fill="var(--fill-0, #050B5D)"/>
<path id="Vector_7" d="M16.5492 11.0545C16.003 10.7642 15.104 10.7635 14.5478 10.8327C13.9733 10.9038 13.2043 11.0831 12.8759 11.5552C12.7506 11.7353 12.6772 12.0123 12.7348 12.2378C12.7674 12.3631 12.8576 12.4583 12.9886 12.5265C13.2213 12.6477 13.9978 12.6736 14.3438 12.7107C14.67 12.7456 15.2705 12.8037 15.6016 12.9419C15.6016 12.9419 15.9151 13.0511 15.913 13.2302C15.9123 13.3186 15.8462 13.3891 15.7791 13.4369C15.2878 13.785 14.6124 13.8838 14.0118 13.874C13.8083 13.8713 13.6406 13.8391 13.4339 13.7505C13.346 13.712 13.2318 13.6417 13.2472 13.5216C13.2719 13.3292 13.4917 13.2819 13.6664 13.2984C13.7639 13.3072 13.8912 13.3489 13.9869 13.3863C14.3722 13.5384 14.5478 13.6664 14.8868 13.6148C15.0133 13.5955 15.4516 13.5006 15.5105 13.3199C15.5253 13.276 15.5042 13.2284 15.4718 13.1955C15.4255 13.1481 15.162 13.0457 15.0904 13.0196C14.8322 12.9279 14.3429 12.8438 14.071 12.8334C13.7143 12.8207 13.2236 12.8936 13.0201 13.1898C12.8367 13.4568 12.7955 13.9942 13.7056 14.4463C14.1288 14.6564 14.6412 14.7497 15.1139 14.6978C15.3841 14.6668 16.1621 14.5458 16.4563 13.9268C16.6144 13.5939 16.599 13.1493 16.4286 12.8334C16.3167 12.6251 16.1798 12.3479 15.1645 12.2201C15.0022 12.1997 13.8078 12.0614 13.6982 12.0442C13.6374 12.0347 13.3578 12.0016 13.4559 11.8949C13.4835 11.8641 13.5683 11.8414 13.6175 11.8273C14.2446 11.656 15.0405 11.6755 15.6989 11.6386C15.8459 11.6295 16.1805 11.6093 16.3423 11.5579C16.4964 11.5098 16.6235 11.4008 16.6591 11.2315C16.6768 11.1416 16.6337 11.0992 16.5494 11.0543L16.5492 11.0545Z" fill="var(--fill-0, #050B5D)"/>
<path id="Vector_8" d="M32.8413 11.8246H30.9648C30.9441 11.176 30.8784 10.5355 30.7685 9.90572C30.7497 9.79762 30.6556 9.71875 30.5464 9.71875H30.0406C29.9418 9.71875 29.867 9.80895 29.8853 9.9064C30.0034 10.5348 30.0737 11.1753 30.0956 11.8246H28.1892C28.102 11.8246 28.0312 11.8955 28.0312 11.9832V12.5587C28.0312 12.6464 28.102 12.7173 28.1892 12.7173H30.0956C30.0737 13.3668 30.0032 14.0071 29.8853 14.6355C29.867 14.733 29.9418 14.8232 30.0406 14.8232H30.5464C30.6556 14.8232 30.7497 14.7445 30.7685 14.6362C30.8784 14.0064 30.9441 13.3659 30.9648 12.7173H32.8413C32.9285 12.7173 32.9992 12.6464 32.9992 12.5587V11.9832C32.9992 11.8955 32.9285 11.8246 32.8413 11.8246Z" fill="var(--fill-0, #050B5D)"/>
<path id="Vector_9" d="M6.99982 4.86218C7.07415 4.91386 7.1784 4.87556 7.25297 4.79555C7.8966 4.10184 8.60074 3.49854 9.40279 2.95078C14.6652 -0.643365 22.3901 -0.12098 26.91 4.43385C28.3947 5.92236 29.2119 7.52011 29.6407 8.77588C29.672 8.86766 29.7577 8.92976 29.8542 8.92976H30.3732C30.4811 8.92976 30.5577 8.82347 30.523 8.7208C29.9605 7.05507 28.8713 5.22661 27.2887 3.73968C22.5444 -0.729258 14.8589 -1.22603 9.50364 2.42794C8.62748 3.01967 7.75699 3.77753 6.99211 4.64371C6.91664 4.72915 6.94225 4.82207 6.99982 4.86218Z" fill="var(--fill-0, #050B5D)"/>
</g>
</svg>
