<svg preserveAspectRatio="none" width="100%" height="100%" overflow="visible" style="display: block;" viewBox="0 0 52.9975 14.0445" fill="none" xmlns="http://www.w3.org/2000/svg">
<g id="Group">
<path id="Vector" fill-rule="evenodd" clip-rule="evenodd" d="M39.5879 10.2144H52.9975V14.0445H50.4422V12.7686H39.5879V10.2144ZM12.7663 6.0766C12.7663 6.09411 12.7688 6.11163 12.7688 6.12914V12.7661H10.2136V6.12914C10.2136 5.56626 9.75558 5.10845 9.19247 5.10845H7.66081V12.7661H5.10804V5.10845H2.55277V12.7661H0V2.55422H9.19247C9.43523 2.55422 9.67049 2.57924 9.89823 2.62427C9.95079 2.63678 10.0033 2.64679 10.0559 2.6593C10.0609 2.6618 10.0659 2.6618 10.0709 2.6643C10.121 2.67681 10.1685 2.68932 10.2161 2.70433C10.2236 2.70683 10.2311 2.70933 10.2411 2.71183C10.2862 2.72434 10.3312 2.73935 10.3763 2.75686C10.3863 2.75936 10.3938 2.76186 10.4038 2.76687C10.4488 2.78188 10.4914 2.79939 10.5364 2.8169C10.5464 2.8194 10.5564 2.82441 10.564 2.82691C10.609 2.84692 10.649 2.86443 10.6916 2.88445C10.7016 2.88945 10.7116 2.89195 10.7216 2.89696C10.7642 2.91697 10.8042 2.93948 10.8443 2.9595L10.8743 2.97451L10.9944 3.04205C11.0044 3.04706 11.0119 3.05206 11.022 3.05706L11.1421 3.13211L11.1646 3.14712C11.2046 3.17464 11.2447 3.20216 11.2822 3.22968L11.3048 3.24469C11.3423 3.27471 11.3798 3.30223 11.4174 3.33225C11.4249 3.33725 11.4299 3.34226 11.4374 3.34726C11.4749 3.37978 11.5125 3.4098 11.55 3.44232L11.565 3.45733C11.6026 3.48986 11.6401 3.52488 11.6752 3.5574C11.6802 3.5624 11.6852 3.56741 11.6877 3.57241C11.7252 3.60744 11.7603 3.64246 11.7953 3.67998L11.8053 3.68999C11.8403 3.73002 11.8754 3.76754 11.9104 3.80757C11.9129 3.81007 11.9154 3.81257 11.9179 3.81758C11.9505 3.8576 11.9855 3.89763 12.018 3.94016C12.018 3.94266 12.0205 3.94516 12.023 3.94766C12.0556 3.99019 12.0881 4.03272 12.1181 4.07525C12.1206 4.07775 12.1206 4.08025 12.1231 4.08276L12.2132 4.21785C12.2132 4.22035 12.2157 4.22035 12.2157 4.22285C12.2458 4.27038 12.2733 4.31541 12.3008 4.36545L12.3083 4.37796C12.3359 4.42299 12.3584 4.46802 12.3834 4.51555C12.6137 4.97086 12.7488 5.4812 12.7638 6.02407C12.7663 6.02407 12.7663 6.05159 12.7663 6.0766ZM19.794 2.55422C22.6145 2.55422 24.902 4.84077 24.902 7.66017C24.902 10.4796 22.6145 12.7661 19.794 12.7661C16.9734 12.7661 14.6859 10.4796 14.6859 7.66017V0H17.2387V7.66017C17.2387 9.07112 18.3824 10.2144 19.794 10.2144C21.2055 10.2144 22.3492 9.07112 22.3492 7.66017C22.3492 6.24922 21.2055 5.10845 19.794 5.10845H18.5176V2.55422H19.794ZM31.9271 5.10845C30.5156 5.10845 29.3718 6.25172 29.3718 7.66267C29.3718 9.07112 30.5156 10.2144 31.9271 10.2144H37.0352V12.7686H31.9271C29.1041 12.7686 26.8191 10.4821 26.8191 7.66267C26.8191 4.84077 29.1041 2.55422 31.9271 2.55422H37.0352V5.10845H31.9271Z" fill="var(--fill-0, #242C38)"/>
</g>
</svg>
