<svg preserveAspectRatio="none" width="100%" height="100%" overflow="visible" style="display: block;" viewBox="0 0 30.0018 19.4781" fill="none" xmlns="http://www.w3.org/2000/svg">
<g id="Frame">
<path id="Path 4939" d="M22.0877 11.5792C21.9638 10.6553 21.5165 9.80499 20.8251 9.17862C19.7137 8.17618 18.3998 7.87163 16.9465 8.14342C15.9701 8.31541 15.0919 8.8415 14.4805 9.62062C13.8916 10.3508 13.5725 11.2611 13.5769 12.1985C13.5645 13.5124 13.5733 14.8265 13.5733 16.1404C13.5733 16.1675 13.5762 16.1943 13.5776 16.2235H15.7229V16.1048C15.7238 14.8678 15.7253 13.6308 15.7274 12.3939C15.7261 12.2151 15.7386 12.0365 15.7647 11.8596C15.8012 11.5534 15.9068 11.2595 16.0734 10.9999C16.2401 10.7404 16.4636 10.5219 16.727 10.361C17.1217 10.122 17.5836 10.0179 18.0428 10.0645C18.3688 10.0796 18.6861 10.1745 18.9668 10.3408C19.2474 10.5072 19.4827 10.7398 19.6521 11.0183C19.8914 11.4215 20.0096 11.8849 19.9924 12.3533V16.2275H22.1464V16.1088C22.1464 14.8507 22.1495 13.5926 22.1438 12.3331C22.1437 12.0808 22.125 11.8288 22.0877 11.5792V11.5792Z" fill="var(--fill-0, #2E1259)"/>
<path id="Path 4940" d="M15.7809 7.15866L15.9949 7.07511C15.9818 7.03285 15.973 7.00057 15.9618 6.969C15.7939 6.49567 15.3647 5.27057 15.3198 5.13075L15.3115 5.12695C15.1334 5.19817 14.9548 5.26439 14.7774 5.33846C13.0183 6.04747 11.6104 7.42086 10.8598 9.16023C10.4194 10.1881 10.1406 11.2777 10.0331 12.3905C9.98047 12.879 9.87939 13.3611 9.73133 13.8297C9.50785 14.6009 9.11824 15.3141 8.58976 15.9193C8.06128 16.5245 7.40671 17.0071 6.67185 17.3334C6.50541 17.4079 6.33611 17.471 6.16016 17.5425C6.38937 18.1877 6.61788 18.8303 6.84828 19.4781C6.91343 19.4543 6.96717 19.436 7.02281 19.4159C7.97246 19.0874 8.8432 18.5651 9.57958 17.8823C10.316 17.1995 10.9019 16.371 11.2999 15.4498C11.7399 14.4232 12.0182 13.3348 12.1248 12.2233C12.1829 11.6752 12.3031 11.1355 12.4829 10.6144C12.736 9.82742 13.1642 9.10779 13.7353 8.50936C14.3064 7.91092 15.0057 7.44917 15.7809 7.15866V7.15866Z" fill="var(--fill-0, #2E1259)"/>
<path id="Path 4941" d="M8.18304 14.152C8.57241 13.3145 8.68419 12.3749 8.50213 11.4697C8.41269 10.9067 8.20207 10.3697 7.88476 9.89578C7.56745 9.42185 7.15101 9.02222 6.66412 8.72442C6.10995 8.36921 5.48231 8.14408 4.82842 8.06596C4.17453 7.98784 3.5114 8.05877 2.88893 8.2734C2.30527 8.44632 1.76939 8.75122 1.32291 9.16442C0.876427 9.57763 0.531362 10.088 0.314514 10.656C0.00342697 11.4343 -0.0790524 12.2851 0.0767365 13.1085C0.207157 13.9182 0.583284 14.6685 1.15434 15.258C1.53656 15.6598 1.99522 15.9816 2.50348 16.2043C3.01175 16.4271 3.55942 16.5464 4.11443 16.5552C4.55799 16.5681 5.00124 16.5206 5.43195 16.414C6.03291 16.2713 6.59322 15.9933 7.07004 15.6013C7.54686 15.2092 7.92756 14.7135 8.18304 14.152V14.152ZM6.42206 12.4026C6.41906 12.9323 6.22893 13.444 5.88516 13.8475C5.67187 14.0981 5.40092 14.2933 5.09551 14.4165C4.7901 14.5396 4.45933 14.587 4.13155 14.5546C3.63619 14.5223 3.16857 14.3148 2.81266 13.9694C2.45675 13.6239 2.23585 13.1631 2.18962 12.6696C2.17369 12.5443 2.16751 12.4178 2.15705 12.292C2.14848 11.7879 2.30116 11.2943 2.59289 10.8829C2.7825 10.6211 3.03315 10.4093 3.32316 10.2659C3.61317 10.1225 3.93381 10.0518 4.25734 10.0599C4.6463 10.0365 5.03364 10.1271 5.37164 10.3207C5.70963 10.5143 5.98352 10.8024 6.15955 11.1495C6.35921 11.5357 6.44995 11.9688 6.42206 12.4026V12.4026Z" fill="var(--fill-0, #2E1259)"/>
<path id="Path 4942" d="M25.6686 1.78967e-07H23.5859V10.0035H25.6686V1.78967e-07Z" fill="var(--fill-0, #FF00D2)"/>
<path id="Path 4943" d="M29.2907 3.91555C28.1385 4.36242 26.8786 4.45379 25.6738 4.17785L23.5914 3.70476C22.1757 3.40739 20.7077 3.47272 19.3242 3.89466L19.9137 5.88863C21.1096 5.52462 22.384 5.50356 23.5914 5.82786L25.6738 6.29075C26.1388 6.36955 26.6096 6.41004 27.0812 6.41181C28.0792 6.40498 29.0681 6.22141 30.0018 5.86964L29.2907 3.91555Z" fill="var(--fill-0, #FF00D2)"/>
</g>
</svg>
