<svg preserveAspectRatio="none" width="100%" height="100%" overflow="visible" style="display: block;" viewBox="0 0 62 13" fill="none" xmlns="http://www.w3.org/2000/svg">
<g id="Shabab">
<path d="M0.574888 9.34375C1.56369 10.3368 2.66748 10.9913 4.46113 10.9913C6.16279 10.9913 7.10561 10.3368 7.10561 9.29861C7.10561 6.95139 0.390924 7.98958 0.390924 3.56597C0.390924 1.28646 2.36854 0 4.87505 0C6.04782 0 7.08261 0.203125 7.95644 0.519097C8.89926 0.85764 9.06023 1.35417 8.89926 2.16667L8.78428 2.6632C8.71529 2.84375 8.6923 2.93403 8.53133 2.93403C8.43935 2.93403 8.32437 2.88889 8.1864 2.82118C7.22059 2.30208 6.1168 1.98611 4.89804 1.98611C3.63329 1.98611 2.69047 2.46007 2.69047 3.45313C2.69047 5.91319 9.40516 4.78472 9.40516 9.09549C9.40516 11.4427 7.6805 13 4.71408 13C1.44872 13 0 11.217 0 9.70486C0 9.41146 0.137973 9.2309 0.321937 9.2309C0.413919 9.2309 0.505901 9.25347 0.574888 9.34375Z" fill="var(--fill-0, #0455A4)"/>
<path d="M13.2258 5.19097C13.7547 4.51389 14.5826 4.0625 15.7093 4.0625C17.7789 4.0625 19.1817 5.37153 19.1817 7.8316V12.526C19.1817 12.7066 19.1357 12.7743 18.9287 12.7743H17.227C17.0661 12.7743 16.9741 12.7066 16.9741 12.526V8.10243C16.9741 6.63542 16.1693 6.07118 15.1345 6.07118C14.0307 6.07118 13.2258 6.63542 13.2258 8.17014V12.526C13.2258 12.7066 13.1798 12.7743 12.9959 12.7743H11.3172C11.1332 12.7743 11.0642 12.7066 11.0642 12.526V0.496528C11.0642 0.315972 11.1332 0.225694 11.3172 0.225694H11.4322C12.6049 0.225694 13.2258 0.767362 13.2258 2.12153V5.19097Z" fill="var(--fill-0, #0455A4)"/>
<path d="M27.6057 11.7135C26.9849 12.526 25.9961 12.9774 24.9153 12.9774C22.3168 12.9774 20.96 10.9462 20.96 8.50868C20.96 5.9809 22.5007 4.0625 24.9613 4.0625C26.295 4.0625 27.2378 4.62674 27.7897 5.28125C28.0197 4.5816 28.6175 4.28819 29.4224 4.28819H29.5374C29.7443 4.28819 29.7903 4.37847 29.7903 4.55903V12.526C29.7903 12.7066 29.7443 12.7743 29.5374 12.7743H27.8357C27.6747 12.7743 27.6057 12.7066 27.6057 12.526V11.7135ZM25.3982 10.9462C26.272 10.9462 27.6057 10.5399 27.6057 8.50868C27.6057 6.5 26.272 6.13889 25.4212 6.13889C24.5013 6.13889 23.2136 6.65799 23.2136 8.50868C23.2136 10.4497 24.5703 10.9462 25.3982 10.9462Z" fill="var(--fill-0, #0455A4)"/>
<path d="M34.088 11.7361V12.526C34.088 12.7066 34.042 12.7743 33.858 12.7743H32.1333C31.9954 12.7743 31.9264 12.7066 31.9264 12.526V0.496528C31.9264 0.315972 31.9954 0.225694 32.1333 0.225694H32.2483C33.4441 0.225694 34.088 0.767362 34.088 2.12153V5.37153C34.6169 4.62674 35.5137 4.0625 36.8014 4.0625C39.216 4.0625 40.7337 5.80035 40.7337 8.50868C40.7337 10.9688 39.3539 12.9774 36.8014 12.9774C35.6746 12.9774 34.7088 12.526 34.088 11.7361ZM36.2725 10.9462C37.1464 10.9462 38.4571 10.4497 38.4571 8.50868C38.4571 6.63542 37.1923 6.13889 36.2725 6.13889C35.4447 6.13889 34.088 6.5 34.088 8.50868C34.088 10.5174 35.4677 10.9462 36.2725 10.9462Z" fill="var(--fill-0, #0455A4)"/>
<path d="M48.8721 11.7135C48.2512 12.526 47.2624 12.9774 46.1816 12.9774C43.5831 12.9774 42.2264 10.9462 42.2264 8.50868C42.2264 5.9809 43.7671 4.0625 46.2276 4.0625C47.5613 4.0625 48.5042 4.62674 49.0561 5.28125C49.286 4.5816 49.8839 4.28819 50.6887 4.28819H50.8037C51.0107 4.28819 51.0567 4.37847 51.0567 4.55903V12.526C51.0567 12.7066 51.0107 12.7743 50.8037 12.7743H49.102C48.9411 12.7743 48.8721 12.7066 48.8721 12.526V11.7135ZM46.6645 10.9462C47.5383 10.9462 48.8721 10.5399 48.8721 8.50868C48.8721 6.5 47.5383 6.13889 46.6875 6.13889C45.7677 6.13889 44.4799 6.65799 44.4799 8.50868C44.4799 10.4497 45.8367 10.9462 46.6645 10.9462Z" fill="var(--fill-0, #0455A4)"/>
<path d="M55.3543 11.7361V12.526C55.3543 12.7066 55.3083 12.7743 55.1243 12.7743H53.3997C53.2617 12.7743 53.1927 12.7066 53.1927 12.526V0.496528C53.1927 0.315972 53.2617 0.225694 53.3997 0.225694H53.5147C54.7104 0.225694 55.3543 0.767362 55.3543 2.12153V5.37153C55.8832 4.62674 56.78 4.0625 58.0678 4.0625C60.4823 4.0625 62 5.80035 62 8.50868C62 10.9688 60.6203 12.9774 58.0678 12.9774C56.941 12.9774 55.9752 12.526 55.3543 11.7361ZM57.5389 10.9462C58.4127 10.9462 59.7234 10.4497 59.7234 8.50868C59.7234 6.63542 58.4587 6.13889 57.5389 6.13889C56.711 6.13889 55.3543 6.5 55.3543 8.50868C55.3543 10.5174 56.734 10.9462 57.5389 10.9462Z" fill="var(--fill-0, #0455A4)"/>
</g>
</svg>
