<svg preserveAspectRatio="none" width="100%" height="100%" overflow="visible" style="display: block;" viewBox="0 0 52 15.8244" fill="none" xmlns="http://www.w3.org/2000/svg">
<g id="Group 27317">
<path id="Vector" d="M8.08998 0C3.6221 0 0 3.54247 0 7.91224C0 12.2822 3.6221 15.8244 8.08998 15.8244C12.5583 15.8244 16.1801 12.2822 16.1801 7.91224C16.1801 3.54275 12.5584 0 8.08998 0ZM11.8 11.4117C11.7655 11.467 11.7201 11.5152 11.6666 11.5533C11.613 11.5915 11.5523 11.619 11.4878 11.6341C11.4234 11.6493 11.3566 11.6519 11.2911 11.6418C11.2256 11.6317 11.1629 11.6091 11.1064 11.5752C9.20692 10.4404 6.81576 10.1834 3.99973 10.8127C3.86933 10.8417 3.7325 10.8189 3.6193 10.7492C3.5061 10.6796 3.4258 10.5689 3.39605 10.4414C3.38123 10.3782 3.37928 10.3129 3.39033 10.249C3.40138 10.1851 3.4252 10.124 3.46043 10.0692C3.49566 10.0143 3.54161 9.96679 3.59564 9.92933C3.64967 9.89187 3.71073 9.8652 3.77532 9.85085C6.85701 9.16225 9.50041 9.45874 11.6329 10.7333C11.8705 10.876 11.9459 11.1793 11.8 11.4117ZM12.7902 9.2573C12.6076 9.54756 12.2193 9.63921 11.9227 9.46063C9.7481 8.15336 6.4333 7.77476 3.8612 8.53838C3.52762 8.63693 3.1753 8.45306 3.07406 8.12738C3.02575 7.9708 3.0429 7.80187 3.12175 7.65765C3.2006 7.51342 3.33471 7.40566 3.49468 7.358C6.43272 6.4861 10.0853 6.90844 12.5825 8.40931C12.8791 8.58789 12.9728 8.96762 12.7902 9.2573ZM12.8752 7.01389C10.2678 5.49922 5.96602 5.35995 3.47661 6.09891C3.07686 6.21749 2.65412 5.99677 2.53298 5.6058C2.47473 5.41796 2.49514 5.21519 2.58972 5.04206C2.6843 4.86894 2.84532 4.73964 3.03735 4.6826C5.89502 3.83414 10.6456 3.99807 13.6475 5.74101C13.733 5.79051 13.8077 5.85603 13.8674 5.93382C13.927 6.01161 13.9703 6.10014 13.9949 6.19434C14.0195 6.28854 14.0249 6.38656 14.0107 6.48278C13.9965 6.57901 13.963 6.67155 13.9122 6.7551C13.6996 7.10677 13.2336 7.2227 12.8752 7.01389ZM22.0102 7.30414C20.6133 6.97836 20.365 6.74971 20.365 6.26926C20.365 5.81536 20.8016 5.5099 21.4518 5.5099C22.0816 5.5099 22.7057 5.74186 23.3607 6.21938C23.38 6.23383 23.4051 6.2396 23.4293 6.23582C23.4414 6.23411 23.4531 6.23 23.4636 6.22372C23.474 6.21745 23.4831 6.20916 23.4901 6.19935L24.1722 5.25905C24.1856 5.2404 24.1913 5.21744 24.1881 5.19483C24.1849 5.17223 24.173 5.15167 24.1548 5.13735C23.3752 4.52576 22.498 4.22842 21.4721 4.22842C19.9641 4.22842 18.9101 5.11364 18.9101 6.38019C18.9101 7.73839 19.8192 8.21931 21.39 8.59053C22.726 8.89165 22.9521 9.14392 22.9521 9.5948C22.9521 10.0946 22.4961 10.4055 21.7619 10.4055C20.9465 10.4055 20.2809 10.1362 19.5371 9.50693C19.5185 9.49159 19.4947 9.48381 19.4704 9.4852C19.4453 9.48709 19.4231 9.49843 19.4076 9.51638L18.6425 10.4064C18.6106 10.4442 18.6145 10.499 18.6512 10.5311C19.5168 11.287 20.5814 11.6857 21.731 11.6857C23.3559 11.6857 24.406 10.8174 24.406 9.47292C24.4089 8.33845 23.7143 7.71014 22.0131 7.30537L22.0102 7.30414ZM28.0827 5.95681C27.3785 5.95681 26.8008 6.22816 26.3236 6.7842V6.15834C26.3237 6.13468 26.3142 6.11194 26.2971 6.09513C26.2801 6.07831 26.2569 6.0688 26.2328 6.06868H24.9817C24.9315 6.06868 24.8909 6.10893 24.8909 6.15834V13.1124C24.8909 13.1616 24.9315 13.2022 24.9817 13.2022H26.2328C26.283 13.2022 26.3236 13.1616 26.3236 13.1124V10.9176C26.8008 11.4401 27.3785 11.6961 28.0827 11.6961C29.3917 11.6961 30.7171 10.7106 30.7171 8.82674C30.7191 6.94246 29.3937 5.95671 28.0837 5.95671L28.0827 5.95681ZM29.2623 8.82674C29.2623 9.78566 28.6585 10.4555 27.7929 10.4555C26.938 10.4555 26.2926 9.75542 26.2926 8.82674C26.2926 7.89797 26.938 7.19804 27.7929 7.19804C28.644 7.19794 29.2623 7.88285 29.2623 8.82674ZM34.1128 5.95681C32.4271 5.95681 31.1065 7.22629 31.1065 8.84725C31.1065 10.4508 32.4184 11.7065 34.0925 11.7065C35.7841 11.7065 37.1085 10.4414 37.1085 8.82674C37.1085 7.21759 35.7928 5.95681 34.1128 5.95681ZM34.1128 10.465C33.2163 10.465 32.5401 9.76015 32.5401 8.82627C32.5401 7.88814 33.1931 7.20739 34.0925 7.20739C34.9948 7.20739 35.6749 7.91195 35.6749 8.84677C35.6749 9.78471 35.018 10.465 34.1128 10.465ZM40.708 6.06868H39.3314V4.69243C39.3315 4.68072 39.3291 4.66911 39.3246 4.65827C39.3201 4.64743 39.3134 4.63757 39.305 4.62925C39.2965 4.62093 39.2865 4.61432 39.2755 4.60979C39.2644 4.60526 39.2526 4.60291 39.2406 4.60286H37.9896C37.9393 4.60286 37.8978 4.64311 37.8978 4.69243V6.06868H37.2969C37.2467 6.06868 37.2061 6.10893 37.2061 6.15834V7.20966C37.2061 7.25898 37.2467 7.29932 37.2969 7.29932H37.8978V10.02C37.8978 11.1188 38.4571 11.6763 39.5613 11.6763C40.0096 11.6763 40.3815 11.5856 40.7322 11.3909C40.7612 11.3758 40.7785 11.3456 40.7785 11.3135V10.3119C40.7785 10.2817 40.7621 10.2524 40.7351 10.2363C40.7219 10.2281 40.7068 10.2234 40.6912 10.2228C40.6755 10.2221 40.66 10.2255 40.6462 10.2326C40.4057 10.3507 40.1728 10.4055 39.912 10.4055C39.5111 10.4055 39.3314 10.2269 39.3314 9.82817V7.2998H40.708C40.7583 7.2998 40.7988 7.25955 40.7988 7.21013V6.15891C40.7992 6.14718 40.7972 6.13549 40.7929 6.12455C40.7885 6.11361 40.7819 6.10365 40.7735 6.09526C40.7651 6.08688 40.7551 6.08025 40.744 6.07578C40.7329 6.07131 40.721 6.06908 40.709 6.06924L40.708 6.06868ZM45.5035 6.07406V5.90503C45.5035 5.40776 45.6986 5.18601 46.1353 5.18601C46.3961 5.18601 46.6057 5.23665 46.8405 5.31318C46.8695 5.32207 46.8994 5.31763 46.9226 5.30071C46.9344 5.29241 46.9439 5.28147 46.9505 5.26882C46.957 5.25616 46.9604 5.24215 46.9603 5.22796V4.19715C46.9605 4.17789 46.9543 4.15909 46.9426 4.1436C46.931 4.1281 46.9144 4.11675 46.8956 4.11126C46.6483 4.03917 46.3314 3.96519 45.8561 3.96519C44.7017 3.96519 44.0902 4.60144 44.0902 5.8045V6.06338H43.4893C43.439 6.06338 43.3975 6.10363 43.3975 6.15295V7.20966C43.3975 7.25898 43.439 7.29932 43.4893 7.29932H44.0902V11.4949C44.0902 11.5449 44.1317 11.5846 44.1819 11.5846H45.432C45.4832 11.5846 45.5238 11.5449 45.5238 11.4949V7.29961H46.6917L48.4808 11.4949C48.278 11.9352 48.078 12.023 47.8056 12.023C47.5853 12.023 47.3525 11.9588 47.1158 11.8312C47.0934 11.8202 47.0675 11.8178 47.0434 11.8246C47.0192 11.8331 46.9989 11.8501 46.9893 11.8728L46.5652 12.7827C46.5449 12.8261 46.5623 12.8762 46.6048 12.8989C47.0472 13.1332 47.4462 13.2334 47.9399 13.2334C48.8634 13.2334 49.3744 12.812 49.8237 11.6801L51.9934 6.19651C51.999 6.18296 52.0011 6.16823 51.9994 6.15369C51.9977 6.13914 51.9923 6.12525 51.9837 6.11327C51.9756 6.10129 51.9645 6.09146 51.9515 6.08467C51.9386 6.07788 51.9241 6.07433 51.9093 6.07434H50.6071C50.5675 6.07434 50.5327 6.09863 50.5202 6.13444L49.1861 9.8603L47.7254 6.13198C47.7189 6.11508 47.7072 6.10052 47.6921 6.09023C47.6769 6.07994 47.6589 6.0744 47.6404 6.07434L45.5035 6.07406ZM42.7232 6.06868H41.4722C41.4219 6.06868 41.3804 6.10893 41.3804 6.15834V11.4949C41.3804 11.5449 41.4219 11.5846 41.4722 11.5846H42.7232C42.7734 11.5846 42.815 11.5449 42.815 11.4949V6.15872C42.815 6.14693 42.8126 6.13525 42.808 6.12435C42.8034 6.11346 42.7967 6.10356 42.7881 6.09523C42.7796 6.08689 42.7695 6.08029 42.7583 6.0758C42.7472 6.07131 42.7353 6.06864 42.7232 6.06868ZM42.1049 3.63865C41.6093 3.63865 41.2075 4.03095 41.2075 4.51556C41.2075 4.63082 41.2307 4.74495 41.2758 4.85144C41.3209 4.95793 41.387 5.05469 41.4703 5.13619C41.5537 5.21769 41.6526 5.28233 41.7615 5.32643C41.8704 5.37053 41.9871 5.39323 42.1049 5.39321C42.6005 5.39321 43.0014 5.00044 43.0014 4.51556C43.0014 4.03104 42.5995 3.63865 42.1049 3.63865Z" fill="var(--fill-0, #0EB74A)"/>
</g>
</svg>
