<svg preserveAspectRatio="none" width="100%" height="100%" overflow="visible" style="display: block;" viewBox="0 0 67 8.375" fill="none" xmlns="http://www.w3.org/2000/svg">
<g id="Group 27114">
<path id="Path 7458" d="M2.59277 2.38903C2.59277 2.13802 2.79897 1.76111 3.60519 1.76111C4.41141 1.76111 4.61761 2.13802 4.61761 2.38903H7.00754C7.00754 1.78467 6.67542 0 3.64237 0C0.609322 0 0.209604 1.82934 0.209604 2.38903C0.209604 5.77965 4.91339 4.54086 4.91339 5.83732C4.91339 6.15656 4.64888 6.49692 3.73111 6.49692C2.71784 6.49692 2.51164 6.05015 2.51164 5.71141H0C0.00845095 6.33121 0.268753 8.375 3.73111 8.375C6.29597 8.375 7.4005 7.21745 7.4005 5.75121C7.4005 2.38903 2.59361 3.66112 2.59361 2.38903H2.59277ZM14.3641 0.224201H7.29148V2.38822H9.56986V8.14918H12.0561V2.38822H14.3641V0.224201ZM48.3479 0.224201H45.8616V8.14999H51.4427V5.98597H48.3479V0.224201ZM62.6393 3.48322L60.879 0.224201H58.2803L61.397 5.78127V8.14999H63.8833V5.78046L67 0.224201H64.4013L62.641 3.48322H62.6393ZM42.0731 0.224201H38.4223V8.14999H40.9085V5.70085H42.0731C44.9718 5.70085 45.358 3.8577 45.358 2.96253C45.358 2.06735 44.9718 0.224201 42.0731 0.224201ZM41.7883 3.94706H40.9094V2.1762H41.7883C42.5497 2.1762 42.8489 2.5718 42.8489 3.06163C42.8489 3.55146 42.5497 3.94706 41.7883 3.94706ZM54.9667 0.224201L51.7021 8.14999H54.3363L54.6337 7.28893H57.5172L57.8147 8.14999H60.4488L57.1842 0.224201H54.9667ZM55.1822 5.70085L56.0755 3.11443L56.9687 5.70085H55.1822ZM16.3061 0.223388L13.0415 8.14918H15.6757L15.9731 7.28812H18.8566L19.1541 8.14918H21.7882L18.5237 0.223388H16.3061ZM16.5216 5.70004L17.4149 3.11362L18.3082 5.70004H16.5216ZM29.2919 2.8155C29.2919 1.38501 28.3082 0.223388 25.8887 0.223388H22.3097V8.14918H24.796V4.81217L26.8614 8.14918H29.8082L27.7014 5.21833C28.8237 4.73338 29.2919 3.78297 29.2919 2.8155ZM25.8887 3.73016H24.796V2.17539H25.8887C26.5571 2.17539 26.82 2.52306 26.82 2.95278C26.82 3.38249 26.5571 3.73016 25.8887 3.73016ZM37.507 0.223388H30.2172V2.3874H33.4852L29.9189 8.14918H36.6248L37.8746 5.98516H33.9407L37.507 0.223388Z" fill="var(--fill-0, #242828)"/>
</g>
</svg>
