<svg preserveAspectRatio="none" width="100%" height="100%" overflow="visible" style="display: block;" viewBox="0 0 26 12" fill="none" xmlns="http://www.w3.org/2000/svg">
<g id="tod-logo 1" clip-path="url(#clip0_0_38)">
<path id="Vector" d="M8.78753 2.62886H5.68951C5.67975 2.62886 5.67003 2.63936 5.67003 2.64985V11.809C5.67003 11.8195 5.66027 11.83 5.65054 11.83H3.27344C3.26369 11.83 3.25396 11.8195 3.25396 11.809V2.64985C3.25396 2.63936 3.2442 2.62886 3.23448 2.62886H0.0390157C0.0292734 2.62886 0.0195312 2.61838 0.0195312 2.60788V1.27545C0.0195312 0.666933 0.477415 0.173828 1.04246 0.173828H12.9669C12.9864 0.173828 12.9669 0.205304 12.9572 0.205304L10.6191 1.02365L8.80702 2.60788C8.79726 2.61838 8.79726 2.62886 8.78753 2.62886Z" fill="url(#paint0_linear_0_38)"/>
<path id="path_1" d="M12.9576 0.173828C12.7822 0.173828 12.6166 0.18432 12.451 0.194811C10.86 0.348958 9.48672 1.19996 8.59318 2.46762C7.89969 3.44436 7.49219 4.6706 7.49219 6.01765C7.49219 9.32249 9.83033 11.8195 12.9381 11.8195C13.3668 11.8195 13.782 11.7676 14.1802 11.6724L13.6373 9.37031C13.501 9.40278 13.3608 9.42575 13.2171 9.43792H12.9965H12.9576C11.9332 9.43792 11.0551 8.91812 10.5078 8.08607C10.1341 7.5112 9.918 6.78861 9.918 5.98618C9.918 4.03474 11.2137 2.55542 12.9381 2.55542C12.984 2.55542 13.0295 2.55704 13.0748 2.5591L17.507 2.5827L20.2447 2.5869C22.1737 2.5869 23.4791 3.95082 23.4791 5.97569C23.4791 8.02157 22.1835 9.39595 20.2447 9.39595C19.3777 9.39595 18.686 10.1513 18.686 11.0746V11.809H20.2447C23.5571 11.809 25.9732 9.36448 25.9732 6.00716C25.9926 2.62886 23.5863 0.173828 20.2642 0.173828H13.2693H13.0258H13.016H12.9576Z" fill="var(--fill-0, #FEBC11)"/>
<path id="path_O" d="M13.2774 2.5567C13.191 2.5568 13.1048 2.55704 13.0188 2.55742L13.0184 2.55854C14.7124 2.60409 15.9868 4.07803 15.9868 6.01965C15.9868 7.96058 14.7106 9.41895 13.0154 9.45041H13.2785V11.6746L12.977 11.8212C16.0269 11.7994 18.4126 9.24748 18.4126 5.98818C18.4126 4.69773 18.0648 3.52811 17.4413 2.58385C15.9585 2.58423 14.5911 2.55516 13.2774 2.5567ZM12.977 11.8212C12.9638 11.8213 12.9507 11.8215 12.9375 11.8215H12.9765L12.977 11.8212Z" fill="url(#paint1_linear_0_38)"/>
</g>
<defs>
<linearGradient id="paint0_linear_0_38" x1="0.020408" y1="5.99571" x2="12.9756" y2="5.99571" gradientUnits="userSpaceOnUse">
<stop stop-color="#FEBC11"/>
<stop offset="0.41" stop-color="#FEBC11"/>
<stop offset="0.9" stop-color="#FEBC11" stop-opacity="0"/>
<stop offset="1" stop-color="#FEBC11" stop-opacity="0"/>
</linearGradient>
<linearGradient id="paint1_linear_0_38" x1="15.856" y1="10.0242" x2="14.3093" y2="0.0224083" gradientUnits="userSpaceOnUse">
<stop offset="0.09" stop-color="#FEBC11"/>
<stop offset="0.8" stop-color="#FEBC11" stop-opacity="0"/>
<stop offset="1" stop-color="#FEBC11" stop-opacity="0"/>
</linearGradient>
<clipPath id="clip0_0_38">
<rect width="26" height="12" fill="white"/>
</clipPath>
</defs>
</svg>
