<svg preserveAspectRatio="none" width="100%" height="100%" overflow="visible" style="display: block;" viewBox="0 0 60 16" fill="none" xmlns="http://www.w3.org/2000/svg">
<g id="Vector">
<path d="M2.95296 11.1873L0 0.549383H3.28326L5.12027 8.11616L7.24697 0.549383H9.64515L11.7715 8.11616L13.6261 0.549383H16.8921L13.575 12.5606H11.7693C11.3636 12.5604 10.9691 12.4267 10.6455 12.1798C10.3219 11.933 10.087 11.5864 9.97642 11.1927L8.45469 5.78301L6.54926 12.5606H4.74807C4.34128 12.5606 3.94566 12.4263 3.62156 12.1784C3.29745 11.9304 3.06264 11.5824 2.95296 11.1873Z" fill="var(--fill-0, #E10077)"/>
<path d="M20.0339 2.78827C19.8846 2.94301 19.7061 3.066 19.5089 3.14998C19.3117 3.23396 19.0998 3.27723 18.8857 3.27723C18.6716 3.27723 18.4597 3.23396 18.2625 3.14998C18.0653 3.066 17.8867 2.94301 17.7374 2.78827C17.5825 2.63886 17.4595 2.45902 17.376 2.25983C17.2926 2.06063 17.2505 1.84631 17.2524 1.63008C17.25 1.41507 17.2919 1.2019 17.3754 1.00404C17.4589 0.80619 17.5822 0.627955 17.7374 0.4806C17.8881 0.328257 18.0671 0.207389 18.2641 0.12492C18.4611 0.0424504 18.6724 0 18.8857 0C19.099 0 19.3102 0.0424504 19.5073 0.12492C19.7043 0.207389 19.8833 0.328257 20.0339 0.4806C20.1891 0.627971 20.3124 0.806216 20.3958 1.00407C20.4792 1.20192 20.5211 1.41509 20.5187 1.63008C20.5206 1.84629 20.4786 2.0606 20.3952 2.2598C20.3118 2.45899 20.1889 2.63885 20.0339 2.78827ZM17.4736 10.6798V3.98097H18.4329C18.9273 3.98097 19.4015 4.17908 19.7511 4.53171C20.1007 4.88434 20.2971 5.3626 20.2971 5.8613V12.5602H19.3378C18.8434 12.5602 18.3692 12.3621 18.0196 12.0094C17.67 11.6568 17.4736 11.1785 17.4736 10.6798Z" fill="var(--fill-0, #E10077)"/>
<path d="M27.3219 3.98096H30.452L27.5422 12.4231C27.0884 13.7155 26.4479 14.6479 25.6208 15.22C24.7937 15.7922 23.722 16.0496 22.4056 15.9921V13.3152C22.8698 13.3396 23.3338 13.2636 23.7665 13.0923C24.0988 12.916 24.3625 12.632 24.5151 12.286L21.1129 3.98096H24.2769L25.9952 8.95689L27.3219 3.98096Z" fill="var(--fill-0, #E10077)"/>
<path d="M36.8837 3.98163H39.7074V10.6805C39.7074 11.1792 39.511 11.6575 39.1614 12.0101C38.8118 12.3627 38.3377 12.5608 37.8432 12.5608H36.884V11.7716C36.5849 12.1165 36.212 12.3884 35.7935 12.5667C35.3751 12.7451 34.9219 12.8252 34.4682 12.8011C33.928 12.8102 33.3925 12.6988 32.8999 12.4749C32.4073 12.251 31.9699 11.9201 31.6189 11.5058C30.8429 10.6138 30.4324 9.45736 30.4706 8.27122C30.4324 7.08509 30.8429 5.92871 31.6189 5.03661C31.97 4.62268 32.4075 4.29207 32.9 4.06839C33.3925 3.84471 33.9279 3.73348 34.4679 3.74264C34.9216 3.71852 35.3747 3.79865 35.7932 3.97699C36.2117 4.15533 36.5846 4.42722 36.8837 4.77214V3.98163ZM33.8044 9.62583C34.1551 9.95659 34.6172 10.1406 35.0973 10.1406C35.5774 10.1406 36.0396 9.95659 36.3903 9.62583C36.5574 9.4443 36.6871 9.23106 36.7718 8.99851C36.8565 8.76595 36.8945 8.51873 36.8837 8.27122C36.8944 8.02373 36.8564 7.77654 36.7717 7.544C36.687 7.31146 36.5573 7.0982 36.3903 6.91661C36.0396 6.58585 35.5774 6.40185 35.0973 6.40185C34.6172 6.40185 34.1551 6.58585 33.8044 6.91661C33.6372 7.09814 33.5076 7.31139 33.4229 7.54395C33.3383 7.77651 33.3003 8.02373 33.3113 8.27122C33.3003 8.51872 33.3382 8.76595 33.4229 8.99852C33.5075 9.23108 33.6372 9.44433 33.8044 9.62583Z" fill="var(--fill-0, #E10077)"/>
<path d="M46.5222 3.74165C46.9436 3.72785 47.3631 3.80574 47.752 3.97003C48.141 4.13432 48.4903 4.38115 48.7762 4.69375C49.3605 5.3287 49.6525 6.24101 49.6523 7.4307V12.5598H46.8285V7.78968C46.8417 7.60594 46.8176 7.42142 46.7577 7.2474C46.6978 7.07338 46.6033 6.91352 46.48 6.77759C46.3559 6.66094 46.2099 6.5705 46.0507 6.51156C45.8915 6.45263 45.7221 6.4264 45.5527 6.43442C45.3625 6.42302 45.1721 6.45313 44.9944 6.52271C44.8168 6.59228 44.6561 6.69968 44.5234 6.83758C44.2603 7.16289 44.1295 7.57689 44.1576 7.99577V12.5598H41.3338V5.86097C41.3338 5.61404 41.3821 5.36953 41.4757 5.1414C41.5694 4.91327 41.7067 4.70598 41.8798 4.53138C42.0529 4.35678 42.2584 4.21827 42.4846 4.12378C42.7108 4.02928 42.9532 3.98065 43.198 3.98065H44.1573V4.83824C44.668 4.10718 45.4564 3.74165 46.5222 3.74165Z" fill="var(--fill-0, #E10077)"/>
<path d="M57.1762 3.98163H60V10.6805C60 11.1792 59.8036 11.6575 59.454 12.0101C59.1044 12.3627 58.6302 12.5608 58.1358 12.5608H57.1766V11.7716C56.8775 12.1165 56.5046 12.3884 56.0861 12.5667C55.6676 12.7451 55.2145 12.8252 54.7608 12.8011C54.2206 12.8102 53.685 12.6988 53.1925 12.4749C52.6999 12.251 52.2625 11.9201 51.9114 11.5058C51.1354 10.6138 50.7249 9.45736 50.7632 8.27122C50.725 7.08509 51.1355 5.92871 51.9114 5.03661C52.2626 4.62268 52.7 4.29207 53.1925 4.06839C53.685 3.84471 54.2204 3.73348 54.7605 3.74264C55.2141 3.71852 55.6673 3.79865 56.0858 3.97699C56.5043 4.15533 56.8771 4.42722 57.1762 4.77214V3.98163ZM54.097 9.62583C54.4476 9.95659 54.9098 10.1406 55.3899 10.1406C55.87 10.1406 56.3322 9.95659 56.6828 9.62583C56.85 9.4443 56.9797 9.23106 57.0644 8.99851C57.1491 8.76595 57.1871 8.51873 57.1762 8.27122C57.187 8.02373 57.149 7.77654 57.0643 7.544C56.9796 7.31146 56.8499 7.0982 56.6828 6.91661C56.3322 6.58585 55.87 6.40185 55.3899 6.40185C54.9098 6.40185 54.4476 6.58585 54.097 6.91661C53.9298 7.09814 53.8001 7.31139 53.7155 7.54395C53.6308 7.77651 53.5929 8.02373 53.6039 8.27122C53.5929 8.51872 53.6308 8.76595 53.7154 8.99852C53.8001 9.23108 53.9298 9.44433 54.097 9.62583Z" fill="var(--fill-0, #E10077)"/>
</g>
</svg>
