<svg preserveAspectRatio="none" width="100%" height="100%" overflow="visible" style="display: block;" viewBox="0 0 50 15" fill="none" xmlns="http://www.w3.org/2000/svg">
<g id="Zain+">
<path d="M3.14136 12.3451H8.76412C9.79364 12.3451 10.2952 12.8761 10.2952 13.8319V14.3894C10.2952 14.6018 10.1896 14.7611 9.92563 14.7611H0.26398C0.0791939 14.7611 0 14.6814 0 14.469V12.9292C0 12.531 0.105592 12.2655 0.369571 11.8938L7.15385 2.41593H0.448765C0.26398 2.41593 0.158388 2.30974 0.158388 2.12389V0.318585C0.158388 0.106195 0.26398 0 0.448765 0H8.63213C9.66165 0 10.2688 0.504426 10.2688 1.59292V1.9646C10.2688 2.33628 10.1896 2.57522 9.92563 2.9469L3.14136 12.3451Z" fill="var(--fill-0, #6B21A8)"/>
<path d="M19.361 13.5133C18.6483 14.469 17.5132 15 16.2725 15C13.2895 15 11.732 12.6106 11.732 9.74336C11.732 6.76991 13.5007 4.51328 16.3253 4.51328C17.8564 4.51328 18.9387 5.17699 19.5722 5.9469C19.8362 5.12389 20.5226 4.77876 21.4465 4.77876H21.5785C21.8161 4.77876 21.8689 4.88496 21.8689 5.09735V14.469C21.8689 14.6814 21.8161 14.7611 21.5785 14.7611H19.625C19.4402 14.7611 19.361 14.6814 19.361 14.469V13.5133ZM16.8268 12.6106C17.83 12.6106 19.361 12.1327 19.361 9.74336C19.361 7.38053 17.83 6.95575 16.8532 6.95575C15.7973 6.95575 14.319 7.56637 14.319 9.74336C14.319 12.0265 15.8765 12.6106 16.8268 12.6106Z" fill="var(--fill-0, #6B21A8)"/>
<path d="M24.5586 14.7611C24.3474 14.7611 24.2946 14.6814 24.2946 14.469V5.09735C24.2946 4.88496 24.3474 4.77876 24.5586 4.77876H24.6905C26.0368 4.77876 26.8024 5.44248 26.8024 7.0354V14.469C26.8024 14.6814 26.7232 14.7611 26.512 14.7611H24.5586ZM24.1098 2.17699C24.1098 1.32743 24.7169 0.716814 25.5353 0.716814C26.3272 0.716814 26.9608 1.32743 26.9608 2.17699C26.9608 3 26.3272 3.63717 25.5353 3.63717C24.7169 3.63717 24.1098 3 24.1098 2.17699Z" fill="var(--fill-0, #6B21A8)"/>
<path d="M31.6716 6.07965C32.3315 5.17699 33.4138 4.59292 34.6545 4.59292C37.1359 4.59292 38.667 6.1062 38.667 9.02655V14.469C38.667 14.6814 38.5878 14.7611 38.3766 14.7611H36.4232C36.212 14.7611 36.1328 14.6814 36.1328 14.469V9.34513C36.1328 7.61947 35.2089 6.9292 33.9946 6.9292C32.7539 6.9292 31.8564 7.61947 31.8564 9.39823V14.469C31.8564 14.6814 31.7508 14.7611 31.5396 14.7611H29.6125C29.4013 14.7611 29.3221 14.6814 29.3221 14.469V5.09735C29.3221 4.88496 29.4013 4.77876 29.6125 4.77876H29.7445C30.7476 4.77876 31.4604 5.23009 31.6716 6.07965Z" fill="var(--fill-0, #6B21A8)"/>
<path d="M44.2188 8.62832H40.9983C40.7871 8.62832 40.7079 8.54867 40.7079 8.33628V6.82301C40.7079 6.58407 40.7871 6.50443 40.9983 6.50443H44.2188V2.92035C44.2188 2.73451 44.298 2.62832 44.5092 2.62832C45.9347 2.62832 46.4891 3.15929 46.4891 4.59292V6.50443H49.7096C49.9208 6.50443 50 6.58407 50 6.82301V8.33628C50 8.54867 49.9208 8.62832 49.7096 8.62832H46.4891V12.2124C46.4891 12.3982 46.4099 12.4779 46.1987 12.4779H44.5092C44.298 12.4779 44.2188 12.3982 44.2188 12.2124V8.62832Z" fill="var(--fill-0, #6B21A8)"/>
</g>
</svg>
